<svg width="150" height="150" viewBox="0 0 150 150" fill="none" xmlns="http://www.w3.org/2000/svg">
<path d="M75.5 136C109.466 136 137 108.465 137 74.5C137 40.5345 109.466 13 75.5 13C41.5345 13 14 40.5345 14 74.5C14 108.465 41.5345 136 75.5 136Z" fill="white" stroke="#004C90" stroke-width="3" stroke-miterlimit="10"/>
<path d="M75.5033 116.597C98.7528 116.597 117.6 97.7499 117.6 74.5003C117.6 51.2508 98.7528 32.4033 75.5033 32.4033C52.2537 32.4033 33.4062 51.2508 33.4062 74.5003C33.4062 97.7499 52.2537 116.597 75.5033 116.597Z" fill="#004C90"/>
<path d="M103.076 64.0738C102.549 62.6929 101.47 61.4614 100.154 60.5731C96.3602 58.1625 90.5773 57.9895 86.6679 60.1696C84.535 61.257 83.1357 63.4109 82.6982 65.625C81.9068 69.2645 82.1112 73.5958 84.9149 76.3235C88.1876 79.19 92.9434 79.8241 97.1777 78.6476C97.3768 78.6083 98.0162 78.4485 98.4564 78.2153L98.5822 78.1629C99.8949 77.6179 101.15 76.727 102.085 75.5217C104.247 72.3643 104.394 67.6321 103.079 64.0764L103.076 64.0738ZM96.1846 72.249C96.0379 72.9381 95.5715 73.6561 94.8404 73.9128C93.6744 74.4264 92.097 74.2849 91.0175 73.6849C90.1135 73.0508 89.9956 71.9922 89.8777 70.9886C89.7886 69.0103 89.6471 66.9168 90.2 65.1062C90.6349 63.9847 91.8324 63.6991 92.9145 63.6152C94.0543 63.6152 95.1601 63.7882 95.8623 64.7053C96.2999 65.3629 96.2711 66.225 96.3576 67.0006C96.3261 68.6356 96.4728 70.5851 96.182 72.249H96.1846Z" fill="white"/>
<path d="M61.5852 74.0311C60.6209 73.9734 59.5414 74.0573 58.6086 73.942L58.6374 63.8697L58.6951 63.7859L61.5852 63.757C61.6166 62.122 61.6428 60.3691 61.5538 58.8781L50.5513 58.8467L48.7381 58.8781C48.7093 60.3979 48.7093 62.1744 48.7381 63.7256C49.7312 63.757 50.664 63.7256 51.6282 63.8147V73.5673L51.5994 73.9682L48.7093 74.0258C48.649 75.6294 48.649 77.1806 48.7093 78.758H61.5826V74.0258L61.5852 74.0311Z" fill="white"/>
<path d="M93.9844 80.9147C92.7581 82.6651 91.2122 84.3577 89.5221 85.6757C89.4618 85.7648 89.2863 85.7308 89.2312 85.6469C88.4976 85.1884 87.7115 84.8163 87.0093 84.3577C87.9447 83.2389 88.8487 82.12 89.5509 80.8833H88.6443C87.9159 81.9497 87.1586 83.066 86.1944 84.0119C84.9078 83.4957 83.7418 83.0371 82.4264 82.6913L82.2823 82.5812C82.4867 82.0021 82.864 81.4571 82.9819 80.8833H82.1932L81.4045 82.4345C79.683 82.0624 77.786 81.8606 76.033 81.7454C75.9439 81.4886 76.0618 81.1139 75.9439 80.8833H75.1867C75.1264 81.2292 75.2731 81.4886 75.0976 81.7768C73.287 81.8606 71.5367 82.0624 69.844 82.4083L69.0527 80.8833C68.7618 80.8833 68.4395 80.8283 68.2378 80.9147L68.9662 82.6074L68.8797 82.6913C67.5617 83.0686 66.2831 83.5271 65.0253 84.0407L64.9074 83.9831C64.0899 83.0922 63.3012 82.1227 62.6592 81.1453C62.5151 80.6553 61.9308 80.9409 61.6085 80.8833C62.3081 82.1462 63.2436 83.2651 64.1764 84.4154C63.3877 84.8766 62.6016 85.3875 61.7815 85.7648C60.0311 84.4442 58.3987 82.7227 57.1698 80.9147C56.8187 80.8597 56.5881 80.8833 56.2344 80.9147C58.3358 84.1848 61.6085 87.054 65.0253 88.7467C65.0253 88.7467 65.0253 88.7205 65.0568 88.7205C65.083 88.7205 65.1406 88.7729 65.083 88.8043C67.3914 89.9232 69.844 90.725 72.4407 91.0708C81.4045 92.2447 89.9597 88.4322 94.9198 80.9147C94.6604 80.8833 94.2779 80.8833 93.9844 80.9147ZM81.8107 83.4957L81.8971 83.438C83.1549 83.7236 84.3497 84.1272 85.4607 84.6696C84.5253 85.7281 83.3278 86.6505 82.2194 87.4234C81.5487 87.8243 80.8753 88.2593 80.173 88.5999L78.9205 88.0549L79.007 87.8558C80.0604 86.4513 80.9958 85.0128 81.8107 83.4931V83.4957ZM76.0592 82.6336C77.7257 82.6651 79.3896 82.838 80.9355 83.2075L80.967 83.2939C80.1521 84.8425 79.1275 86.336 78.0192 87.7405C77.5213 87.7981 77.0549 87.6016 76.5597 87.5702L76.0618 87.5099C76.0042 85.8172 75.9728 84.3263 76.0618 82.631L76.0592 82.6336ZM70.4257 83.1498C71.9428 82.8642 73.5202 82.6336 75.1526 82.6336L75.1841 87.4863C74.5683 87.6252 73.8975 87.6252 73.3132 87.7719C72.1157 86.3622 71.1253 84.8399 70.2789 83.2625L70.4257 83.1472V83.1498ZM65.7223 84.701C66.8648 84.1534 68.0596 83.7498 69.2832 83.438L69.4038 83.4695C70.2475 85.0469 71.3008 86.5378 72.3489 88.0287C71.9428 88.2593 71.445 88.3982 71.0362 88.6314C69.1103 87.6855 67.2683 86.3649 65.7223 84.7848V84.701ZM69.4902 89.6061C67.0377 88.972 64.7607 87.882 62.6566 86.3937V86.3046C63.3588 85.8775 64.0585 85.419 64.8183 85.0993C66.4822 86.7396 68.2037 87.9711 70.0746 89.1449C69.9278 89.3179 69.692 89.4908 69.4902 89.6061ZM80.3224 89.9782C77.2279 90.6411 73.7822 90.6673 70.6877 89.9232C70.6301 89.7817 70.8318 89.7502 70.9209 89.6664C73.6355 87.9161 77.8672 87.9161 80.5268 89.8053C80.6132 89.9782 80.38 89.9232 80.3198 89.9782H80.3224ZM83.1234 89.1764L81.7504 89.6061C81.5172 89.4908 81.3128 89.3179 81.1058 89.1449L81.1635 89.0585C83.0317 87.9711 84.7244 86.6505 86.3306 85.0705C87.1193 85.3849 87.8792 85.8172 88.5814 86.302C86.9464 87.599 85.0493 88.4558 83.1208 89.1738L83.1234 89.1764Z" fill="white"/>
<path d="M57.1177 56.6693C57.8199 55.692 58.606 54.7487 59.4812 53.829C60.2384 53.111 60.9406 52.4245 61.7582 51.9057C62.518 52.3931 63.3644 52.7992 64.0928 53.2578C63.1888 54.3714 62.256 55.4955 61.5826 56.6981C61.787 56.7872 62.1669 56.7584 62.4604 56.6981C63.1888 55.6369 63.9775 54.5757 64.9129 53.6298C66.1654 54.091 67.3943 54.5757 68.6809 54.9216L68.7962 55.0369L68.0677 56.7008C68.39 56.761 68.5944 56.7322 68.9141 56.7008C69.1761 56.216 69.3779 55.671 69.6713 55.181C71.3666 55.5583 73.1484 55.7549 74.959 55.8125C75.1922 56.0169 75.0167 56.4466 75.1031 56.7034H75.8918C75.9783 56.4204 75.863 56.1007 75.9783 55.8466C77.6736 55.7575 79.4527 55.5845 81.093 55.1836L81.2345 55.2151L82.0232 56.7034C82.2879 56.7034 82.6364 56.7637 82.8407 56.6457L82.1097 54.9871L82.17 54.9295C83.5089 54.5836 84.7666 54.0674 86.0505 53.5538C86.9572 54.4998 87.8009 55.6186 88.5634 56.706C88.883 56.706 89.2027 56.7375 89.4385 56.6484C89.0874 56.0195 88.6472 55.3906 88.1834 54.8404C87.8009 54.2954 87.3947 53.8106 86.8969 53.2944V53.1477L88.9407 51.9738L89.2368 51.8585C91.0159 53.2053 92.5907 54.8404 93.8484 56.6484C94.1995 56.6484 94.493 56.7689 94.7839 56.6222C90.8692 50.7711 84.4181 47.0084 77.443 46.4687L77.4116 46.5237L77.3539 46.4687C76.5652 46.3848 75.601 46.3508 74.7546 46.4346C74.435 46.4084 74.055 46.4346 73.6751 46.4687C66.6685 47.0111 60.2175 50.5982 56.1875 56.706C56.481 56.6772 56.8295 56.7951 57.1229 56.6772L57.1177 56.6693ZM69.2338 54.1486L69.1158 54.1748C67.9184 53.863 66.7497 53.4857 65.6414 53.001L65.6964 52.828C67.3026 51.3083 68.9953 50.0453 70.8635 49.0706C71.3037 49.2435 71.7413 49.385 72.1763 49.5894L72.0898 49.8121C70.9788 51.193 70.1037 52.6813 69.2311 54.1486H69.2338ZM75.0429 54.9216C74.228 55.0369 73.4969 54.8954 72.6768 54.8325C71.8907 54.7172 70.8976 54.6334 70.1089 54.3714C70.9553 52.7992 71.9483 51.2768 73.1458 49.875L75.014 50.1292C75.1005 51.6175 75.0429 53.3416 75.0429 54.9216ZM75.9468 54.9504C75.8892 53.4255 75.918 51.7354 75.9468 50.1554C76.5312 50.0715 77.1731 49.9824 77.7574 49.8986C78.8973 51.3292 80.0082 52.7992 80.7681 54.3687C79.1907 54.7461 77.5819 54.9478 75.9495 54.9478L75.9468 54.9504ZM85.2618 52.9407C84.1194 53.4255 82.9508 53.8866 81.6983 54.1486C80.7943 52.6289 79.8012 51.1091 78.6876 49.6392C79.0964 49.4165 79.5942 49.2435 80.0318 49.0129C81.9341 49.9589 83.7709 51.3057 85.3169 52.8516L85.2618 52.9407ZM81.5227 48.0356C83.9753 48.6697 86.2811 49.7571 88.3826 51.248L88.3249 51.3633L86.3126 52.4822H86.1658C84.6199 50.9362 82.8093 49.5894 80.9699 48.5256C81.0275 48.3238 81.321 48.1797 81.5227 48.0382V48.0356ZM80.3567 47.7474V47.805C77.8151 49.6366 73.6987 49.8095 71.0155 48.1168C70.8662 48.0015 70.5753 47.9465 70.5465 47.7447C73.641 47.0294 77.291 46.9718 80.3567 47.7447V47.7474ZM62.5469 51.3057C64.3863 49.9589 66.4301 48.9553 68.5918 48.2662C68.6809 48.1771 68.7359 48.0932 68.8538 48.0932V48.1509C69.087 48.2059 69.2626 47.9465 69.467 48.1168C69.6425 48.2635 69.8495 48.3788 69.9936 48.5203C68.183 49.6366 66.4013 50.9572 64.7688 52.5608C63.9801 52.2778 63.2517 51.8454 62.5495 51.3581V51.303L62.5469 51.3057Z" fill="white"/>
<path d="M75.0716 74.2533C72.3256 75.0001 69.3463 74.4315 67.3628 72.3615C67.1322 72.0733 66.9829 71.7326 66.7497 71.447L62.8088 71.4758C62.7485 73.7974 62.7197 76.4674 62.8088 78.7628L67.1846 78.734L67.2423 77.3557C67.7401 77.5837 68.2353 77.8719 68.7332 78.1287C71.7701 79.3916 75.6795 79.6799 78.6875 78.1287C80.8781 76.926 82.0467 74.6044 81.7244 72.1021C81.4047 69.6679 79.0675 67.4564 76.704 66.8563L69.6372 64.8178L69.1131 64.5584C68.8799 64.3592 68.7332 64.1024 68.7908 63.7854C69.3463 62.8395 70.6303 63.1277 71.5945 63.1513C73.6383 63.4395 75.7398 64.1286 76.9372 65.9943C78.2211 65.9943 79.7094 66.0205 81.1113 65.9628C81.1689 63.6125 81.0851 61.5477 81.0536 59.1659C79.7409 59.1344 78.1347 59.1344 76.8219 59.1973C76.7643 59.538 76.8769 60.0227 76.7328 60.3686L75.3913 59.6506C72.1788 58.3038 67.6825 58.1623 64.7635 60.2559C62.8638 61.6315 62.2821 64.1025 62.7774 66.2799C63.1573 68.3446 65.1408 69.8644 67.0405 70.5797C69.6372 71.4968 72.3544 72.1597 74.9851 73.048C75.2471 73.1659 75.5956 73.4253 75.538 73.7397C75.538 73.9939 75.2734 74.1406 75.0716 74.2507V74.2533Z" fill="white"/>
<path d="M54.8832 102.298C54.8832 103.684 54.1181 104.436 52.5066 104.436C50.979 104.436 50.1851 103.684 50.1851 102.369V102.157H51.6577V102.45C51.6577 103.037 51.9695 103.26 52.4647 103.26C53.0176 103.26 53.3268 103.037 53.3268 102.251V100.76H53.2979C53.0281 101.229 52.5774 101.476 51.883 101.476C50.7353 101.476 50.1562 100.807 50.1562 99.5968V98.0928C50.1562 96.7774 50.9921 96.0254 52.5197 96.0254C54.0473 96.0254 54.8832 96.7774 54.8832 98.0928V102.296V102.298ZM53.3268 99.492V98.0115C53.3268 97.4246 53.0149 97.2124 52.5197 97.2124C52.0245 97.2124 51.7127 97.4246 51.7127 98.0115V99.492C51.7127 100.079 52.0245 100.302 52.5197 100.302C53.0149 100.302 53.3268 100.079 53.3268 99.492Z" fill="white"/>
<path d="M55.7891 98.0957C55.7891 96.7803 56.6249 96.0283 58.1525 96.0283C59.6801 96.0283 60.516 96.7803 60.516 98.0957V102.369C60.516 103.685 59.6801 104.437 58.1525 104.437C56.6249 104.437 55.7891 103.685 55.7891 102.369V98.0957ZM57.3455 102.451C57.3455 103.038 57.6573 103.26 58.1525 103.26C58.6478 103.26 58.9596 103.038 58.9596 102.451V98.0119C58.9596 97.4249 58.6478 97.2022 58.1525 97.2022C57.6573 97.2022 57.3455 97.4249 57.3455 98.0119V102.451Z" fill="white"/>
<path d="M61.3906 98.0957C61.3906 96.7803 62.2265 96.0283 63.7541 96.0283C65.2817 96.0283 66.1176 96.7803 66.1176 98.0957V102.369C66.1176 103.685 65.2817 104.437 63.7541 104.437C62.2265 104.437 61.3906 103.685 61.3906 102.369V98.0957ZM62.9471 102.451C62.9471 103.038 63.2589 103.26 63.7541 103.26C64.2493 103.26 64.5611 103.038 64.5611 102.451V98.0119C64.5611 97.4249 64.2493 97.2022 63.7541 97.2022C63.2589 97.2022 62.9471 97.4249 62.9471 98.0119V102.451Z" fill="white"/>
<path d="M68.0859 97.1549C69.2886 97.1549 69.5585 96.6728 69.7996 96.1226H70.8477V104.342H69.2913V98.072H68.0886V97.1549H68.0859Z" fill="white"/>
<path d="M74.228 98.6221V99.8667H72.7266V98.6221H74.228ZM74.228 103.097V104.342H72.7266V103.097H74.228Z" fill="white"/>
<path d="M77.639 97.2019C77.1438 97.2019 76.832 97.4246 76.832 98.0115V98.8919H75.3594V98.0928C75.3594 96.7774 76.1507 96.0254 77.6809 96.0254C79.2112 96.0254 80.0025 96.7774 80.0025 98.0928C80.0025 99.1854 79.5203 100.066 78.0766 101.345C77.1569 102.167 76.9027 102.555 76.9027 102.987C76.9027 103.045 76.9027 103.105 76.9158 103.163H79.861V104.337H75.3594V103.328C75.3594 102.411 75.755 101.719 76.9158 100.71C78.1054 99.6649 78.4434 99.0203 78.4434 98.1399C78.4434 97.401 78.1316 97.1993 77.6364 97.1993L77.639 97.2019Z" fill="white"/>
<path d="M80.8359 98.0957C80.8359 96.7803 81.6718 96.0283 83.1994 96.0283C84.727 96.0283 85.5629 96.7803 85.5629 98.0957V102.369C85.5629 103.685 84.727 104.437 83.1994 104.437C81.6718 104.437 80.8359 103.685 80.8359 102.369V98.0957ZM82.3924 102.451C82.3924 103.038 82.7042 103.26 83.1994 103.26C83.6946 103.26 84.0064 103.038 84.0064 102.451V98.0119C84.0064 97.4249 83.6946 97.2022 83.1994 97.2022C82.7042 97.2022 82.3924 97.4249 82.3924 98.0119V102.451Z" fill="white"/>
<path d="M87.5312 97.1549C88.7339 97.1549 89.0038 96.6728 89.2449 96.1226H90.293V104.342H88.7366V98.072H87.5339V97.1549H87.5312Z" fill="white"/>
<path d="M93.582 101.688V102.45C93.582 103.037 93.8938 103.25 94.389 103.25C94.8842 103.25 95.196 103.037 95.196 102.45V100.642C95.196 100.056 94.8842 99.8328 94.389 99.8328C93.8938 99.8328 93.582 100.056 93.582 100.642V100.889H92.1094L92.3924 96.1226H96.4983V97.2964H93.7811L93.6527 99.2564H93.6815C93.9645 98.8686 94.4021 98.6563 95.0257 98.6563C96.1734 98.6563 96.7525 99.3245 96.7525 100.535V102.367C96.7525 103.682 95.9611 104.434 94.4309 104.434C92.9007 104.434 92.1094 103.682 92.1094 102.367V101.685H93.582V101.688Z" fill="white"/>
<path d="M43.0294 36.7867L44.1535 37.9239C45.5082 39.2917 45.4558 40.89 43.8653 42.4648C42.2748 44.0396 40.6764 44.071 39.3244 42.7032L34.925 38.2567C33.5703 36.8889 33.6227 35.2905 35.2132 33.7158C36.8037 32.1436 38.402 32.1095 39.7541 33.4773L40.5768 34.3079L39.0466 35.8224L38.14 34.9054C37.5347 34.2948 36.9819 34.3839 36.4657 34.8923C35.9495 35.4032 35.8551 35.9561 36.4604 36.5666L41.0301 41.1861C41.6354 41.7966 42.1752 41.6971 42.6914 41.1861C43.2076 40.6752 43.3124 40.1354 42.7097 39.5249L41.5018 38.3038L43.032 36.7893L43.0294 36.7867Z" fill="#004C90"/>
<path d="M47.458 30.556L50.1149 28.9078L51.0215 30.3673L48.3646 32.0155L50.2223 35.0078L53.5658 32.9325L54.4724 34.392L49.1926 37.67L42.8516 27.4483L48.1314 24.1704L49.038 25.6299L45.6945 27.7051L47.4606 30.5534L47.458 30.556Z" fill="#004C90"/>
<path d="M62.3873 31.2448C62.1698 30.9907 62.0309 30.8387 61.7191 29.9111L61.1138 28.1215C60.7575 27.0629 60.1915 26.8192 59.2115 27.1494L58.4648 27.4009L60.0317 32.0414L57.8726 32.7698L54.0234 21.3743L57.2804 20.2738C59.5181 19.5192 60.7706 20.0563 61.3654 21.8145L61.6667 22.7107C62.0624 23.8819 61.8632 24.7833 61.0274 25.4829L61.0379 25.5143C62.2432 25.5248 62.8825 26.2506 63.2834 27.4402L63.8782 29.1984C64.0643 29.7513 64.2215 30.1522 64.5804 30.5033L62.382 31.2448H62.3873ZM56.7328 22.2731L57.9145 25.7737L58.7582 25.4881C59.5627 25.2156 59.9557 24.7571 59.6465 23.8452L59.2666 22.7211C58.9914 21.9062 58.5381 21.6626 57.7704 21.9193L56.7302 22.2705L56.7328 22.2731Z" fill="#004C90"/>
<path d="M66.3281 17.9315L73.3373 17.2397L73.505 18.9508L71.1337 19.184L72.1451 29.4475L69.8786 29.6702L68.8672 19.4067L66.4958 19.6399L66.3281 17.9289V17.9315Z" fill="#004C90"/>
<path d="M79.2406 17.418L81.5124 17.6092L80.4983 29.5969L78.2266 29.4056L79.2406 17.418Z" fill="#004C90"/>
<path d="M88.8004 24.3744L91.6381 25.1526L91.1848 26.8086L88.3471 26.0304L87.0343 30.8202L84.8359 30.2175L88.0169 18.6177L93.8313 20.2108L93.3753 21.8668L89.7594 20.8763L88.8004 24.3718V24.3744Z" fill="#004C90"/>
<path d="M99.3942 22.5171L101.446 23.5102L96.1975 34.3344L94.1484 33.3414L99.3968 22.5171H99.3942Z" fill="#004C90"/>
<path d="M105.987 32.2117L108.497 34.0773L107.473 35.4582L104.963 33.5926L102.861 36.4198L106.021 38.7676L104.997 40.1485L100.008 36.4434L107.182 26.7852L112.171 30.4902L111.147 31.8711L107.986 29.5233L105.987 32.2143V32.2117Z" fill="#004C90"/>
<path d="M116.942 34.9424L119.274 37.691C120.746 39.4283 120.67 40.9611 119.203 42.2057L114.563 46.1414C113.095 47.386 111.57 47.2104 110.098 45.4732L107.766 42.7245L116.942 34.945V34.9424ZM117.104 37.7932L110.548 43.3508L111.379 44.3308C111.848 44.8836 112.364 45.0146 113.022 44.4592L117.793 40.4135C118.448 39.858 118.404 39.3261 117.935 38.7732L117.104 37.7932Z" fill="#004C90"/>
<path d="M40.6722 113.987L39.3987 115.085C37.8659 116.409 36.1915 116.238 34.6534 114.456C33.1153 112.675 33.1966 110.995 34.7294 109.672L39.7131 105.375C41.246 104.051 42.9203 104.222 44.4584 106.003C45.9965 107.785 45.9153 109.465 44.3824 110.788L43.4522 111.59L41.9718 109.874L42.9989 108.988C43.6828 108.398 43.6304 107.809 43.1326 107.232C42.6347 106.653 42.0609 106.517 41.377 107.107L36.202 111.569C35.5181 112.158 35.5836 112.735 36.0815 113.311C36.5793 113.888 37.14 114.04 37.8239 113.45L39.1943 112.269L40.6748 113.985L40.6722 113.987Z" fill="#004C90"/>
<path d="M48.0403 114.024C49.1618 112.336 50.8728 112.085 52.8327 113.387C54.7927 114.689 55.2224 116.366 54.101 118.051L50.4588 123.533C49.3373 125.22 47.6263 125.472 45.6664 124.169C43.7064 122.867 43.2767 121.19 44.3981 119.505L48.0403 114.024ZM46.324 120.936C45.8236 121.688 46.0332 122.241 46.6673 122.663C47.3014 123.085 47.891 123.064 48.3914 122.312L52.1751 116.62C52.6755 115.868 52.4659 115.316 51.8318 114.894C51.1977 114.472 50.6082 114.493 50.1077 115.245L46.324 120.936Z" fill="#004C90"/>
<path d="M62.0959 127.534L62.1379 127.544L66.0944 119.317L69.3069 120.207L65.9241 132.402L63.7415 131.797L66.1678 123.053L66.1259 123.043L62.1457 131.357L59.963 130.751L60.6758 121.662L60.6338 121.651L58.2415 130.274L56.2266 129.714L59.6093 117.519L62.8217 118.41L62.0986 127.534H62.0959Z" fill="#004C90"/>
<path d="M81.0443 123.31L81.1046 124.953C81.1806 126.976 80.046 128.124 77.6485 128.213L76.5165 128.255L76.6921 133.005L74.2972 133.094L73.8281 120.446L77.355 120.315C79.7499 120.226 80.9683 121.285 81.0417 123.308L81.0443 123.31ZM76.2912 122.168L76.451 126.449L77.5829 126.407C78.3454 126.379 78.749 126.075 78.7149 125.171L78.6442 123.274C78.6101 122.37 78.1856 122.097 77.4231 122.126L76.2912 122.168Z" fill="#004C90"/>
<path d="M95.704 129.269L93.3982 129.997L92.3134 127.932L89.5071 128.818L89.8032 131.132L87.7044 131.795L86.2266 118.99L89.5726 117.934L95.7067 129.271L95.704 129.269ZM89.2792 127.086L91.4828 126.392L88.4774 120.627L88.4354 120.64L89.2792 127.086Z" fill="#004C90"/>
<path d="M99.1378 117.116L99.1011 117.14L104.237 124.733L102.45 125.941L95.3594 115.457L97.8512 113.772L104.098 118.693L104.135 118.67L99.8924 112.394L101.661 111.197L108.752 121.68L106.713 123.059L99.1404 117.113L99.1378 117.116Z" fill="#004C90"/>
<path d="M112.914 111.818L104.469 108.739L106.07 106.81L111.661 109.106L111.69 109.072L108.41 103.994L109.872 102.233L114.444 109.971L117.67 112.651L116.137 114.496L112.911 111.815L112.914 111.818Z" fill="#004C90"/>
</svg>
